<svg id="checkboxSVG" xmlns="http://www.w3.org/2000/svg" width="130.88px" height="110.61px" viewBox="0 0 130.88 110.61">
<g id="checkbox-layer">	
	<circle id="cirle" fill="none" stroke="#FFFFFF" stroke-width="14.9235" stroke-miterlimit="10" cx="53.89" cy="56.72" r="46.43"/>
	<defs>
        <clipPath id="stroke-up-clip">
			<path id="stroke-up" fill="#E32813" d="M53.89,54.89c2.67-7.08,12-22.63,26.33-33.67C99.41,6.46,126.89-2.37,130.56,0.56c3.18,2.53-17.7,4.81-44.66,32.7C58.14,61.97,72.6,89.8,54.73,84.12C45.89,81.31,51.22,61.97,53.89,54.89z"/>
		</clipPath>
	</defs>
	<defs>
        <clipPath id="stroke-down-clip">
			<path id="stroke-down" fill="#009EE2" d="M59.31,66.77c3.08,9.17,3.27,17.7,0.22,18.1c-1.27,0.17-2.84-0.11-4.8-0.75c-12.59-4.14-5.59-3.14-16.8-25.89c-6.34-12.87-16.04-22.33-13.7-24.67c4.5-4.5,14.24,3.38,23.02,13.36C54.89,55.6,56.1,57.25,59.31,66.77z"/>
		</clipPath>
	</defs>
</g>
<g id="mask-layer" fill="none" stroke="#1D1D1B" stroke-width="18" stroke-linecap="round" stroke-miterlimit="10">
	<path id="stroke-down-mask" d="M31.27,37.82c13,12.75,19.09,25.34,23.63,41.5"/>
	<path id="stroke-up-mask"  d="M57.64,77.57c1.89-34.76,30-61.75,65.75-75"/>
</g>
</svg>